<svg id="visual" viewBox="0 0 900 600" width="900" height="600" xmlns="http://www.w3.org/2000/svg" xmlns:xlink="http://www.w3.org/1999/xlink" version="1.1"><rect x="0" y="0" width="900" height="600" fill="#000a23"></rect><path d="M0 375L129 416L257 381L386 396L514 391L643 419L771 429L900 425L900 601L771 601L643 601L514 601L386 601L257 601L129 601L0 601Z" fill="#000230"></path><path d="M0 456L129 441L257 394L386 407L514 476L643 430L771 408L900 407L900 601L771 601L643 601L514 601L386 601L257 601L129 601L0 601Z" fill="#000c46"></path><path d="M0 488L129 453L257 474L386 494L514 457L643 508L771 499L900 470L900 601L771 601L643 601L514 601L386 601L257 601L129 601L0 601Z" fill="#000e5c"></path><path d="M0 501L129 482L257 490L386 500L514 492L643 535L771 538L900 518L900 601L771 601L643 601L514 601L386 601L257 601L129 601L0 601Z" fill="#000c71"></path><path d="M0 572L129 538L257 530L386 544L514 567L643 528L771 544L900 524L900 601L771 601L643 601L514 601L386 601L257 601L129 601L0 601Z" fill="#000687"></path></svg>